<?xml version="1.0" encoding="UTF-8" standalone="no"?>
<!-- Created with Inkscape (http://www.inkscape.org/) -->

<svg
   version="1.1"
   id="svg48"
   width="243.21973"
   height="639.03345"
   viewBox="0 0 243.21973 639.03345"
   sodipodi:docname="flower_silhouette.jpg"
   xmlns:inkscape="http://www.inkscape.org/namespaces/inkscape"
   xmlns:sodipodi="http://sodipodi.sourceforge.net/DTD/sodipodi-0.dtd"
   xmlns="http://www.w3.org/2000/svg"
   xmlns:svg="http://www.w3.org/2000/svg">
  <defs
     id="defs52" />
  <sodipodi:namedview
     id="namedview50"
     pagecolor="#505050"
     bordercolor="#eeeeee"
     borderopacity="1"
     inkscape:showpageshadow="0"
     inkscape:pageopacity="0"
     inkscape:pagecheckerboard="0"
     inkscape:deskcolor="#505050"
     showgrid="false"
     inkscape:zoom="1.0846047"
     inkscape:cx="258.15857"
     inkscape:cy="361.88299"
     inkscape:window-width="1920"
     inkscape:window-height="1052"
     inkscape:window-x="0"
     inkscape:window-y="0"
     inkscape:window-maximized="1"
     inkscape:current-layer="g54" />
  <g
     inkscape:groupmode="layer"
     inkscape:label="Image"
     id="g54"
     transform="translate(-288.82587,-41.966549)">
    <path
       style="fill:#090909;stroke:none"
       d="m 447,75 h -1 c -5.514,-11.8236 -18.039,-18.2162 -30,-21.5717 -4.103,-1.151 -10.792,-2.8523 -14.682,-0.2493 -8.237,5.5111 5.971,14.8969 10.682,16.1798 6.778,1.8457 13.022,-0.5102 20,2.5208 6.849,2.9752 10.033,10.3443 18,9.1204 v 5 c 4.199,-2.7855 4.014,-7.3256 3.999,-12 C 453.954,60.0007 443.942,51.2286 432.961,43.9691 428.694,41.1484 420.534,40.367 423.272,48.0008 427.699,60.343 445.432,60.5602 447,75 m 11,24 c -3.098,-12.2237 -26.888,-23.1586 -37.891,-14.4861 -9.459,7.455 0.388,15.0968 8.891,14.3156 4.03,-0.3703 7.983,-1.3941 12,-1.8704 5.883,-0.6976 11.151,1.904 17,2.0409 m 10,-5 c 1.884,5.8851 5.999,9.571 11,13 0.103,-5.573 -5.819,-11.4142 -11,-13 m -7,1 5,4 -5,-4 m -5,35 v 9 c 4.587,-1.821 9.43,-6.065 4,-10 v -2 c 4.128,-1.973 6.094,-4.514 7,-9 h 1 c 0.282,4.759 -4.599,29.602 6.995,23.371 2.123,-1.14 4.022,-2.997 6.005,-4.371 -0.083,9.953 -7.998,18.211 -6.808,28 0.594,4.883 5.638,12.126 11.019,7.396 3.567,-3.136 5.322,-9.91 6.271,-14.396 1.866,-8.813 -6.177,-18.565 -1.482,-26 v 8 c 6.535,-5.502 0.77,-11.633 -6,-13 v 6 c -5.126,-6.029 -12.803,-13.562 -16.698,-20.184 -2.028,-3.45 -3.335,-11.188 -9.133,-9.984 -11.64,2.417 -16.911,25.566 -2.169,27.168 m 10,-28 5,5 c -0.577,-3.474 -1.526,-4.423 -5,-5 m 11,7 5,4 -5,-4 m -7,1 5,5 -5,-5 m 8,7 c 0.812,3.932 2.214,5.639 6,7 -0.335,-4.394 -1.556,-6.291 -6,-7 m 7,0 5,7 c 0.354,-4.169 -1.018,-5.842 -5,-7 m -38.726,15.89 c -3.374,1.115 -2.178,7.379 1.633,6.22 3.918,-1.192 2.232,-7.497 -1.633,-6.22 M 440,139 l -6,11 c 6.474,-0.358 11.25,-5.32 6,-11 m 11.419,2.086 c -3.598,2.199 -0.45,7.315 2.978,4.716 2.711,-2.055 0.124,-6.613 -2.978,-4.716 M 458,147 c 14.638,3.322 2.888,-13.966 0,0 m 34,-3 c 2.976,5.215 4.744,25.545 11.957,25.654 5.026,0.076 4.327,-8.558 3.653,-11.654 -1.525,-7 -8.361,-13.833 -15.61,-14 m 11,1 c 1.521,5.583 6.221,8.855 8.571,14 2.536,5.552 1.976,11.783 6.218,16.671 2.303,2.652 7.226,5.709 10.697,3.297 4.129,-2.868 2.082,-10.251 0.583,-13.968 C 524.748,154.284 513.873,147.583 503,145 m -41,9 v -4 l -14,2 v -6 c -3.697,0.604 -8.146,4.682 -2.848,7.272 5.145,2.516 11.469,1.408 16.848,0.728 m -27,0 c -4.139,6.363 -1.792,9.237 -2.518,16 -1.164,10.853 -8.587,28.61 1.518,37 l 3.603,-36 7.397,-14 -7,3 -1,-6 h -2 m -56,105 5,-3 1,4 c 7.599,-3.948 8.93,-14.947 12.799,-22 5.532,-10.084 13.136,-16.286 20.386,-24.609 2.377,-2.728 7.401,-11.259 4.772,-14.788 -4.401,-5.907 -17.31,2.147 -20.656,5.582 C 391.56,215.212 386.224,238.014 385,253 h -1 l 9,-60 c -10.019,-1.854 -15.728,6.452 -17.532,16 -3.099,16.393 3.53,33.553 3.532,50 m -7,2 c 5.248,-3.211 3.509,-8.724 3.086,-14 -0.921,-11.465 -3.005,-30.764 -10.389,-39.985 -12.396,-15.479 -10.675,8.422 -7.998,15.985 1.717,4.852 4.251,9.406 6.548,14 3.921,7.843 7.078,15.368 8.753,24 m -5,3 c 0,-17.458 -8.869,-24.451 -19.7,-36.999 -2.525,-2.926 -9.656,-12.208 -14.682,-8.868 -3.771,2.506 1.754,11.257 3.174,13.867 5.596,10.282 13.949,13.159 22.023,20.39 3.794,3.398 4.95,8.836 9.185,11.61 m 22,-1 c 7.322,-0.755 9.74,-5.38 15.039,-9.698 8.103,-6.6 17.389,-10.739 24.1,-19.263 2.33,-2.96 9.44,-8.205 6.789,-12.605 -3.257,-5.407 -14.831,-1.364 -18.928,0.754 -13.589,7.026 -19.926,28.055 -27,40.812 m 7,3 c 7.178,-0.735 13.101,-5.314 20,-7.215 9.924,-2.733 17.411,-0.621 27,-5.924 3.626,-2.005 12.889,-4.394 12.454,-9.796 -0.56,-6.952 -13.978,-5.833 -18.454,-5.195 -13.157,1.876 -32.975,17.732 -41,28.13 m -31,5 c -2.582,-14.309 -22.98,-26.43 -36,-29.844 -3.278,-0.86 -13.378,-3.987 -15.777,-0.552 -3.063,4.387 4.726,10.493 7.777,12.402 8.119,5.079 18.249,6.218 27,9.856 5.77,2.399 10.845,7.205 17,8.138 m 36,1 c 15.614,0 30.608,3.95 46,3.999 5.033,0.016 14.058,0.283 13.998,-6.96 -0.051,-6.169 -10.392,-7.79 -14.998,-8 -11.62,-0.528 -37.433,0.676 -45,10.961 m -41,6 c -4.059,-11.905 -22.694,-16.051 -34,-14.713 -3.663,0.434 -13.793,1.473 -13.793,6.725 0,4.436 7.466,6.449 10.793,7.169 12.3,2.659 24.726,-1.46 37,0.819 m 15,-15 -1,5 h 4 l -3,-5 m -7,6 v 5 l 4,-1 v -2 l -4,-2 m 21,0 1,4 h 2 l 1,-4 h -4 m -8,1 v 5 l 5,-2 -5,-3 m -6,2 v 5 l 4,-4 -4,-1 m 19,2 -6,4 v 4 h 9 c 1.26,-4.055 1.395,-6.598 -3,-8 m -30,4 1,4 4,-1 v -2 l -5,-1 m 16,5 6,-4 c -3.866,-0.901 -5.164,0.167 -6,4 m 22,-5 c 7.079,8.264 22.697,18.201 33,21.91 4.144,1.491 10.909,3.802 13.681,-1.058 3.654,-6.406 -2.462,-11.836 -7.681,-14.475 C 429.262,278.442 414.855,278 402,278 m -30,2 v 5 l 4,-1 -4,-4 m -11,7 c -8.991,-9.008 -28.054,-6.346 -39,-2.644 -3.905,1.32 -13.563,5.474 -11.338,11.21 1.479,3.813 10.212,2.596 13.338,2.26 12.786,-1.373 24.05,-9.154 37,-10.826 m 27,4 5,-5 c -4.052,-0.593 -5.593,0.948 -5,5 m 10,-6 c 6.787,10.271 13.64,24.547 23.039,32.532 2.793,2.373 8.561,7.03 12.447,4.425 5.471,-3.668 2.104,-11.026 -1.506,-14.203 C 423.023,299.871 409.974,287.316 398,285 m -18,1 c 1.998,2.969 3.615,2.368 6,0 h -6 m -7,5 h 5 c -1.768,-2.75 -3.102,-2.575 -5,0 m 19,-1 c 0.55,12.764 4.109,27.795 10.313,38.999 2.027,3.66 7.207,10.757 12.369,7.88 4.223,-2.354 2.171,-11.281 1.109,-14.879 C 412.696,311.517 403.137,293.135 392,290 m -30,4 c -15.048,-6.314 -36.85,11.911 -40.036,25.996 -1.246,5.504 5.181,9.029 9.996,7.246 4.595,-1.701 7.116,-7.481 9.761,-11.242 5.602,-7.966 11.733,-17.072 20.279,-22 m 23,0 c -2.868,13.893 -11.271,50.619 10,54 7.137,-19.582 -6.466,-35.225 -8,-54 h -2 m -9,1 c -5.122,15.14 -16.517,29.514 -16.87,46 -0.112,5.23 2.911,16.22 9.855,15.534 5.862,-0.579 7.131,-8.967 7.726,-13.534 1.318,-10.122 -1.651,-19.959 -1.528,-30 0.075,-6.089 2.8,-11.735 2.817,-18 h -2 m -9,1 c -4.553,7.28 -11.031,12.893 -16.985,19 -5.533,5.674 -11.423,12.54 -10.906,21 0.274,4.486 3.362,10.363 8.798,8.917 10.603,-2.82 10.379,-27.735 15.047,-35.917 2.442,-4.279 6.107,-7.895 4.046,-13 m 62,81 c 6.397,-1.031 12.992,-8.194 18,-12.261 14.764,-11.99 34.499,-35.257 55,-35.739 v 1 c -19.845,8.562 -46.323,25.982 -60.826,42.004 -5.737,6.337 -13.68,14.787 -11.174,23.996 3.514,-3.753 4.935,-8.959 8.529,-12.61 5.874,-5.965 17.623,-8.249 25.471,-10.39 0.052,-14.697 12.449,-12.033 21.581,-19.086 4.73,-3.653 5.133,-8.659 11.419,-11.389 5.334,-2.316 13.098,-1.821 17.346,-6.174 7.93,-8.124 -7.938,-8.157 -12.346,-7.351 l 1,-4 c -11.414,-1.411 -16.149,4.182 -26,8.262 -4.333,1.794 -8.89,-0.073 -12.816,3.172 -4.334,3.582 -6.047,9.611 -10.484,13.089 -3.058,2.397 -6.246,-0.062 -9.202,1.608 C 438.77,354.368 431.158,370.776 429,377 m -5,-47 c -3.737,12.613 -2.198,26.988 -3.09,40 -2.024,29.563 -1.91,59.325 -1.91,89 0,65.083 -4.68,127.573 -13,192 h 1 c 16.365,-31.103 15.172,-71.615 16.015,-106 1.118,-45.653 2.985,-91.286 2.985,-137 0,-18.356 1,-36.611 1,-55 0,-6.895 1.337,-17.283 -3,-23 m 93,10 7,18 h -1 c -2.315,-7.866 -6.293,-14.789 -15,-15 -0.906,7.172 -2.579,17.023 5,21 l 3,-6 c 3.45,4.888 4.394,13.88 9.22,17.377 5.195,3.765 6.441,-3.835 6.691,-7.377 0.776,-10.996 -1.498,-26.506 -14.911,-28 m -121,9 c 5.397,29.073 3.293,59.563 4.015,89 0.759,31.001 3.985,61.952 3.985,93 h -1 c -0.393,-9.141 -2.524,-24.373 -10.329,-30.397 -3.382,-2.611 -8.104,-2.237 -11.67,-4.997 -3.209,-2.484 -5.562,-6.676 -9.171,-8.543 -3.481,-1.801 -8.066,-0.67 -11.83,-2.274 -5.715,-2.434 -14.704,-12.5 -21.663,-9.172 -4.214,2.016 2.238,7.488 3.663,9.383 -9.99,-5.264 -20.839,-7 -32,-7 l 1,3 -1,1 c -4.007,-1.184 -27.332,0.402 -19.623,8.487 3.187,3.343 14.217,3.947 18.029,1.485 3.17,-2.047 5.009,-7.421 9.594,-6.352 8.054,1.879 11.089,9.52 17.105,13.638 3.011,2.061 6.579,1.351 9.895,2.395 10.037,3.159 12.834,6.228 24,5.347 -2.624,12.496 12.039,7.75 19,10 -4.185,8.522 5.918,8.657 9.647,14.133 2.443,3.587 2.372,9.954 7.353,9.867 L 403.536,587 383,681 c 18.819,-7.98 18.354,-43.97 21.424,-61 3.512,-19.477 7.076,-39.182 7.561,-59 0.744,-30.362 -4.62,-60.719 -5.946,-91 -0.641,-14.642 0.961,-29.326 0.961,-44 0,-19.433 0.363,-38.722 -2.428,-58 -0.981,-6.77 -0.67,-17.352 -8.572,-19 m -2,162 v 1 L 360.285,496.687 349,490 v -2 l 22.17,10.726 z"
       id="path271" />
  </g>
</svg>
